<svg xmlns="http://www.w3.org/2000/svg" version="1.1" xmlns:xlink="http://www.w3.org/1999/xlink" xmlns:svgjs="http://svgjs.dev/svgjs" width="100%" height="100%" viewBox="0 0 1000 600"><rect width="1000" height="600" x="0" y="0" fill="#fff748"/><g><rect width="333.3333333333333" height="333.3333333333333" y="179.43394646794349" fill="#3c1a5b" transform="matrix(0.7951060600825312,0,0,0.795106060082531,0,24.813299146924635)" x="157.21173095703122"/><path d="M276.32450793709387 421.100613906512L276.32450793709387 421.100613906512Q272.1106958599822 421.100613906512 269.88673948595107 418.70108202926787Q267.6627831119199 416.2722875681549 267.6627831119199 412.0584754910432L267.6627831119199 412.0584754910432L267.6627831119199 279.9379093232714Q267.6627831119199 275.51925915907793 270.0037898214264 273.3245653689156Q272.315533947064 271.1006089948845 276.52934602417565 271.1006089948845L276.52934602417565 271.1006089948845L326.4513141044013 271.1006089948845Q350.27105737362973 271.1006089948845 363.11733169204655 282.27891603277794Q375.9636060104633 293.4279604868025 375.9636060104633 314.08734469819717L375.9636060104633 314.08734469819717Q375.9636060104633 327.13845710369577 370.16961440443475 336.73658461267235Q364.37562279840625 346.3054495377801 353.22657834438166 351.28008879548133Q342.04827130648823 356.22546546931375 326.4513141044013 356.22546546931375L326.4513141044013 356.22546546931375L328.5582201429571 353.47478258564365L332.7720322200688 353.47478258564365Q340.9948182872103 353.47478258564365 347.11069831579596 357.6885946627553Q353.22657834438166 361.902406739867 358.2597427698206 371.1786458262864L358.2597427698206 371.1786458262864L378.5094508070516 408.8981164332095Q380.17741808757495 411.85363740396144 380.0896303359685 414.692108039238Q379.97258000049317 417.53057867451463 378.07051204901916 419.3155962905133Q376.16844409754515 421.100613906512 372.59840886554775 421.100613906512L372.59840886554775 421.100613906512Q369.02837363355036 421.100613906512 366.6873669240439 419.43264662598864Q364.37562279840625 417.73541676159647 362.70765551788287 414.57505770376275L362.70765551788287 414.57505770376275L339.7365271808506 372.0272607584825Q334.87893825862466 362.95585975914486 328.5582201429571 359.91255103678645Q322.2375020272896 356.8399797305592 311.90780992159233 356.8399797305592L311.90780992159233 356.8399797305592L284.956970178399 356.8399797305592L284.956970178399 412.0584754910432Q284.956970178399 416.2722875681549 282.85006413984314 418.70108202926787Q280.74315810128735 421.100613906512 276.32450793709387 421.100613906512ZM284.956970178399 285.43927509061166L284.956970178399 343.1450904799463L323.93473189168185 343.1450904799463Q341.19965637429215 343.1450904799463 350.0662192865479 335.88796968047626Q358.90351961493485 328.63084888100616 358.90351961493485 314.08734469819717L358.90351961493485 314.08734469819717Q358.90351961493485 299.95351668955186 350.0662192865479 292.6963958900817Q341.19965637429215 285.43927509061166 323.93473189168185 285.43927509061166L323.93473189168185 285.43927509061166L284.956970178399 285.43927509061166Z " fill="#fff748" transform="matrix(0.7951060600825312,0,0,0.795106060082531,0,24.813299146924635)"/><path d="M582.4316621025524 420.6671712670338L582.4316621025524 420.6671712670338Q578.2706144284667 420.6671712670338 576.0745059338104 418.2976857859572Q573.878397439154 415.8993041404772 573.878397439154 411.73825646639153L573.878397439154 411.73825646639153L573.878397439154 281.2720741851631Q573.878397439154 276.9087533602538 576.1900905914239 274.7415410300008Q578.4728875792904 272.5454325353445 582.6339352533761 272.5454325353445L582.6339352533761 272.5454325353445L631.9307917255302 272.5454325353445Q655.4522695498757 272.5454325353445 668.1376857229563 283.5837673374329Q680.8231018960371 294.59320597511794 680.8231018960371 314.9938980438992L680.8231018960371 314.9938980438992Q680.8231018960371 327.88158736780355 675.1016613441691 337.3595292921098Q669.3802207923013 346.8085750520127 658.3707821546162 351.72092300058614Q647.3324473525279 356.60437478475615 631.9307917255302 356.60437478475615L631.9307917255302 356.60437478475615L634.011315562573 353.8881353308391L638.1723632366587 353.8881353308391Q646.2921854340065 353.8881353308391 652.3314837943113 358.04918300492477Q658.3707821546162 362.21023067901046 663.3409224319964 371.3703147948797L663.3409224319964 371.3703147948797L683.3370681991305 408.61747071082726Q684.9841495701228 411.535983315568 684.8974610769126 414.33891126269515Q684.7818764192991 417.1418392098223 682.9036257330799 418.90450523842804Q681.0253750468607 420.6671712670338 677.500042989649 420.6671712670338L677.500042989649 420.6671712670338Q673.9747109324376 420.6671712670338 671.6630177801678 419.0200898960415Q669.3802207923013 417.3441123606459 667.7331394213091 414.2233266050817L667.7331394213091 414.2233266050817L645.0496503646615 372.2083035625775Q640.2528870737016 363.2504925975319 634.011315562573 360.2452914995811Q627.7697440514445 357.21119423722695 617.5693980170538 357.21119423722695L617.5693980170538 357.21119423722695L590.9560306015475 357.21119423722695L590.9560306015475 411.73825646639153Q590.9560306015475 415.8993041404772 588.8755067645046 418.2976857859572Q586.7949829274618 420.6671712670338 582.4316621025524 420.6671712670338ZM590.9560306015475 286.7045530929972L590.9560306015475 343.68778929644844L629.44572158684 343.68778929644844Q646.4944585848301 343.68778929644844 655.2499963990521 336.521540524412Q663.9766380488705 329.35529175237554 663.9766380488705 314.9938980438992L663.9766380488705 314.9938980438992Q663.9766380488705 301.03705063707014 655.2499963990521 293.8708018650336Q646.4944585848301 286.7045530929972 629.44572158684 286.7045530929972L629.44572158684 286.7045530929972L590.9560306015475 286.7045530929972ZM742.198555088801 421.10061373308434L742.198555088801 421.10061373308434Q731.7959359035867 421.10061373308434 723.5894252130288 417.0262545522088Q715.3540183580676 412.9807915357366 710.5861512315112 405.90123125691025Q705.7893879405513 398.8216709780839 705.7893879405513 390.0950293282653L705.7893879405513 390.0950293282653Q705.7893879405513 378.85442137535324 711.510828492419 372.4105767134011Q717.2322690442868 365.96673205144896 730.4378161766283 363.2504925975319Q743.6722594733731 360.56314930801824 766.5580216808444 360.56314930801824L766.5580216808444 360.56314930801824L775.9203789475371 360.56314930801824L775.9203789475371 371.57258794570333L766.760294831668 371.57258794570333Q749.9138309845016 371.57258794570333 740.2336159093716 373.1329808234854Q730.5534008342418 374.6933737012676 726.7102109685932 378.44987507370604Q722.8670211029446 382.1774802817411 722.8670211029446 389.0547674097439L722.8670211029446 389.0547674097439Q722.8670211029446 397.57913590873886 728.790734805636 402.9827186521696Q734.7144485083275 408.4151975600037 744.914794542718 408.4151975600037L744.914794542718 408.4151975600037Q753.2368898908894 408.4151975600037 759.5651498952282 404.45642303674157Q765.9223060639702 400.49764851347953 769.5632227787951 393.62036138547677Q773.20413949362 386.77197042187737 773.20413949362 377.8141594568318L773.20413949362 377.8141594568318L773.20413949362 354.0904084816627Q773.20413949362 341.2027191577584 768.002829901013 335.48127860589057Q762.8015203084058 329.75983805402274 750.9540929030229 329.75983805402274L750.9540929030229 329.75983805402274Q743.6722594733731 329.75983805402274 736.390426043723 331.638088740242Q729.1085926140731 333.51633942646123 720.9887704167254 337.6773871005469L720.9887704167254 337.6773871005469Q718.0702578119847 339.12219532071555 715.9897339749418 338.60206436145484Q713.909210137899 338.0819334021941 712.666675068554 336.4059558667985Q711.4241399992088 334.75887449580625 711.1929706839819 332.56276600114995Q710.9906975331583 330.39555367089696 712.1465441092932 328.3150298338541Q713.2734945210248 326.23450599681127 715.7874608241182 324.9630747630629L715.7874608241182 324.9630747630629Q724.9475449399874 320.3974807873299 733.8764597406296 318.3169569502871Q742.8342707056752 316.23643311324423 750.9540929030229 316.23643311324423L750.9540929030229 316.23643311324423Q764.044055377751 316.23643311324423 772.5684238767458 320.51306544494344Q781.1216885401443 324.7608016122393 785.28273621423 333.4007547688477Q789.4437838883157 342.0407079254562 789.4437838883157 355.5641128662347L789.4437838883157 355.5641128662347L789.4437838883157 411.9405296172152Q789.4437838883157 416.1015772913009 787.449948544483 418.38437427916733Q785.4850093650537 420.6671712670338 781.728507992615 420.6671712670338L781.728507992615 420.6671712670338Q777.769733469353 420.6671712670338 775.6892096323102 418.38437427916733Q773.6086857952673 416.1015772913009 773.6086857952673 411.9405296172152L773.6086857952673 411.9405296172152L773.6086857952673 395.7008852225196L775.4869364814865 395.7008852225196Q773.8398551104942 403.6184342690438 769.158676477148 409.2242901632981Q764.4774978438015 414.8590422219558 757.6002107157988 417.9798279775201Q750.722923587796 421.10061373308434 742.198555088801 421.10061373308434ZM828.9737367921298 420.6671712670338L828.9737367921298 420.6671712670338Q824.8126891180441 420.6671712670338 822.7321652810012 418.38437427916733Q820.6516414439584 416.1015772913009 820.6516414439584 411.9405296172152L820.6516414439584 411.9405296172152L820.6516414439584 279.6249928141708Q820.6516414439584 275.4639451400851 822.7321652810012 273.2678366454288Q824.8126891180441 271.1006243151759 828.9737367921298 271.1006243151759L828.9737367921298 271.1006243151759Q832.9036151509886 271.1006243151759 835.2153083032583 273.2678366454288Q837.4981052911248 275.4639451400851 837.4981052911248 279.6249928141708L837.4981052911248 279.6249928141708L837.4981052911248 340.5670035408842L834.7818658372078 340.5670035408842Q839.1451866621169 328.5173029846777 849.0276748880706 322.3624199667593Q858.910163114024 316.23643311324423 871.8267486023317 316.23643311324423L871.8267486023317 316.23643311324423Q883.8764491585382 316.23643311324423 891.9095828626757 320.5997539381535Q899.9138204024102 324.9630747630629 903.8725949256723 333.805301070495Q907.8024732845308 342.647527377927 907.8024732845308 356.1709323187055L907.8024732845308 356.1709323187055L907.8024732845308 411.9405296172152Q907.8024732845308 416.1015772913009 905.635260954278 418.38437427916733Q903.4391524596217 420.6671712670338 899.4803779363594 420.6671712670338L899.4803779363594 420.6671712670338Q895.3193302622738 420.6671712670338 893.1521179320209 418.38437427916733Q890.9560094373646 416.1015772913009 890.9560094373646 411.9405296172152L890.9560094373646 411.9405296172152L890.9560094373646 357.21119423722695Q890.9560094373646 343.08096984397764 885.4368420363203 336.521540524412Q879.9465707996794 329.96211120484634 867.8679740790697 329.96211120484634L867.8679740790697 329.96211120484634Q853.940022836644 329.96211120484634 845.7046159816825 338.60206436145484Q837.4981052911248 347.24201751806334 837.4981052911248 361.60341122653966L837.4981052911248 361.60341122653966L837.4981052911248 411.9405296172152Q837.4981052911248 420.6671712670338 828.9737367921298 420.6671712670338ZM974.6104053851291 421.10061373308434L974.6104053851291 421.10061373308434Q962.3295355136954 421.10061373308434 954.3252979739611 416.6217082505616Q946.2921642698236 412.1428027680388 942.2467012533514 403.2138879673966Q938.2012382368791 394.256077002351 938.2012382368791 380.9349452123961L938.2012382368791 380.9349452123961L938.2012382368791 325.19424407828984Q938.2012382368791 320.8020270889771 940.3684505671322 318.72150325193434Q942.5645590617885 316.6409794148915 946.5233335850505 316.6409794148915L946.5233335850505 316.6409794148915Q950.6843812591362 316.6409794148915 952.8515935893893 318.72150325193434Q955.0477020840456 320.8020270889771 955.0477020840456 325.19424407828984L955.0477020840456 325.19424407828984L955.0477020840456 380.7326720615725Q955.0477020840456 394.0538038515274 960.5668694850899 400.613233171093Q966.0571407217305 407.1437663262553 977.9334642915169 407.1437663262553L977.9334642915169 407.1437663262553Q990.8211536154213 407.1437663262553 998.940975812769 398.4171246764367Q1007.0607980101167 389.6904830266181 1007.0607980101167 375.53136246896537L1007.0607980101167 375.53136246896537L1007.0607980101167 325.19424407828984Q1007.0607980101167 320.8020270889771 1009.2280103403698 318.72150325193434Q1011.4241188350261 316.6409794148915 1015.5851665091118 316.6409794148915L1015.5851665091118 316.6409794148915Q1019.5439410323738 316.6409794148915 1021.7111533626269 318.72150325193434Q1023.9072618572832 320.8020270889771 1023.9072618572832 325.19424407828984L1023.9072618572832 325.19424407828984L1023.9072618572832 411.9405296172152Q1023.9072618572832 420.6671712670338 1015.7874396599354 420.6671712670338L1015.7874396599354 420.6671712670338Q1011.8286651366732 420.6671712670338 1009.6614528064204 418.38437427916733Q1007.465344311764 416.1015772913009 1007.465344311764 411.9405296172152L1007.465344311764 411.9405296172152L1007.465344311764 393.01354193300597L1010.1815837656809 395.93205453774664Q1006.0205360915954 408.1840282447767 996.542594167289 414.65676907113226Q987.0935484073862 421.10061373308434 974.6104053851291 421.10061373308434ZM1086.3229769685686 421.10061373308434L1086.3229769685686 421.10061373308434Q1071.3547638076216 421.10061373308434 1063.4372147610975 411.9405296172152Q1055.519665714573 402.780445501346 1055.519665714573 385.73170850335595L1055.519665714573 385.73170850335595L1055.519665714573 279.6249928141708Q1055.519665714573 275.4639451400851 1057.600189551616 273.2678366454288Q1059.6807133886587 271.1006243151759 1063.8417610627444 271.1006243151759L1063.8417610627444 271.1006243151759Q1067.8005355860064 271.1006243151759 1070.0833325738731 273.2678366454288Q1072.395025726143 275.4639451400851 1072.395025726143 279.6249928141708L1072.395025726143 279.6249928141708L1072.395025726143 384.489173434011Q1072.395025726143 395.7008852225196 1076.8450350442622 401.22005262356384Q1081.323940526785 406.7392200246081 1090.079478341007 406.7392200246081L1090.079478341007 406.7392200246081Q1091.9288328628231 406.7392200246081 1093.4025372473948 406.5369468737844Q1094.8473454675636 406.3346737229609 1096.3210498521357 406.3346737229609L1096.3210498521357 406.3346737229609Q1098.603846840002 406.10350440773385 1099.52852410091 407.3749356414823Q1100.4820975262214 408.61747071082726 1100.4820975262214 412.3450759188624L1100.4820975262214 412.3450759188624Q1100.4820975262214 416.1015772913009 1098.8061199908257 417.9798279775201Q1097.13014245543 419.8580786637394 1093.4025372473948 420.4648981162102L1093.4025372473948 420.4648981162102Q1091.7265597119995 420.6671712670338 1089.84830902578 420.8983405822608Q1087.9989545039643 421.10061373308434 1086.3229769685686 421.10061373308434Z " fill="#3c1a5b" transform="matrix(0.7951060600825312,0,0,0.795106060082531,0,24.813299146924635)"/></g></svg>